<?xml version="1.0" encoding="UTF-8"?><svg id="Calque_1" xmlns="http://www.w3.org/2000/svg" viewBox="0 0 133.75 90.64"><defs><style>.cls-1{fill:#8f00ff;stroke-width:0px;}</style></defs><path class="cls-1" d="m26.28,87.64c-2.64,0-10.28-.46-15.57-5.42-3.47-3.26-5.22-7.67-5.22-13.13V16.78c.08-4.81,3.99-13.78,18.2-13.78h87.51c.71-.01,7.8-.02,12.72,4.8,2.84,2.78,4.34,6.64,4.34,11.15v53.8c0,4.14-3.07,14.87-17.06,14.87H27.05c-.16,0-.42.02-.77.02ZM111.29,11H23.69c-9.99,0-10.2,5.61-10.21,5.85v52.24c0,3.19.88,5.57,2.68,7.27,3.79,3.59,10.49,3.27,10.56,3.27h.23s84.24,0,84.24,0c8.24,0,9.02-5.29,9.06-6.92V18.96c0-2.38-.63-4.16-1.93-5.44-2.52-2.47-6.89-2.52-7.04-2.52Z"/><polygon class="cls-1" points="66.69 56.43 11.76 13.35 16.7 7.05 66.64 46.22 116.6 6.32 121.59 12.57 66.69 56.43"/><rect class="cls-1" x="9.56" y="57.71" width="53.4" height="8" transform="translate(-32.44 41.64) rotate(-43.28)"/><rect class="cls-1" x="94.15" y="33.53" width="8" height="55.86" transform="translate(-13.29 92.94) rotate(-47.83)"/></svg>