<?xml version="1.0" encoding="UTF-8"?><svg id="Calque_1" xmlns="http://www.w3.org/2000/svg" viewBox="0 0 106.85 104.58"><defs><style>.cls-1{fill:#8f00ff;stroke-width:0px;}</style></defs><path class="cls-1" d="m75.24,102.19c-2.76,0-5.67-.23-8.76-.54-.35-.03-.68-.11-1.01-.24C36.67,90.55,14.38,67.19,2.69,35.64c-.16-.44-.25-.92-.25-1.39C2.44,10.53,20.98,3.01,30.78,2.35c1.81-.12,3.47.99,4.06,2.71l7.08,20.87c.43,1.26.2,2.64-.6,3.7-.32.43-1.9,2.28-9.12,9.05,8.01,17.42,29.02,30.38,36.01,34.33l8.5-7.23c1.05-.89,2.49-1.18,3.8-.77,0,0,14.33,4.56,21.1,6.7,1.04.33,1.9,1.07,2.38,2.05.48.98.54,2.11.17,3.14-7.63,20.87-16.77,25.27-28.92,25.27Zm-7.43-8.44c12.21,1.23,19.96,1.76,27.31-15.68-5.16-1.64-11.64-3.7-14.92-4.74l-8.9,7.57c-1.22,1.04-2.96,1.25-4.39.52-1.37-.69-33.7-17.22-43.22-42.33-.58-1.52-.17-3.24,1.02-4.35,4.85-4.51,7.48-7.09,8.87-8.5l-5.22-15.41c-5.7,1.33-17.57,6.1-17.9,22.71,7.76,20.58,23.97,47.4,57.36,60.19Z"/></svg>